<svg xmlns="http://www.w3.org/2000/svg" viewBox="0 0 912 2148" width="912" height="2148" style="font-family: ui-monospace, monospace; font-size: 12px;"><defs><marker id="arrow" viewBox="0 0 10 10" refX="10" refY="5" markerWidth="8" markerHeight="8" orient="auto-start-reverse"><path d="M 0 0 L 10 5 L 0 10 z" fill="rgba(154,124,255,0.6)"></path></marker></defs><path d="M 336 81 C 296 81, 296 59, 256 59" fill="none" stroke="rgba(154,124,255,0.4)" stroke-width="1.5" marker-end="url(#arrow)"></path><path d="M 576 103 C 616 103, 616 345, 656 345" fill="none" stroke="rgba(154,124,255,0.4)" stroke-width="1.5" marker-end="url(#arrow)"></path><path d="M 336 147 C 296 147, 296 345, 256 345" fill="none" stroke="rgba(154,124,255,0.4)" stroke-width="1.5" marker-end="url(#arrow)"></path><path d="M 656 81 C 456 81, 456 59, 256 59" fill="none" stroke="rgba(154,124,255,0.4)" stroke-width="1.5" marker-end="url(#arrow)"></path><path d="M 656 235 C 456 235, 456 345, 256 345" fill="none" stroke="rgba(154,124,255,0.4)" stroke-width="1.5" marker-end="url(#arrow)"></path><path d="M 256 411 C 256 411, 256 59, 256 59" fill="none" stroke="rgba(154,124,255,0.4)" stroke-width="1.5" marker-end="url(#arrow)"></path><path d="M 336 367 C 296 367, 296 345, 256 345" fill="none" stroke="rgba(154,124,255,0.4)" stroke-width="1.5" marker-end="url(#arrow)"></path><path d="M 576 389 C 616 389, 616 345, 656 345" fill="none" stroke="rgba(154,124,255,0.4)" stroke-width="1.5" marker-end="url(#arrow)"></path><path d="M 256 917 C 456 917, 456 345, 656 345" fill="none" stroke="rgba(154,124,255,0.4)" stroke-width="1.5" marker-end="url(#arrow)"></path><path d="M 576 807 C 616 807, 616 345, 656 345" fill="none" stroke="rgba(154,124,255,0.4)" stroke-width="1.5" marker-end="url(#arrow)"></path><path d="M 256 1181 C 456 1181, 456 345, 656 345" fill="none" stroke="rgba(154,124,255,0.4)" stroke-width="1.5" marker-end="url(#arrow)"></path><path d="M 256 1203 C 256 1203, 256 59, 256 59" fill="none" stroke="rgba(154,124,255,0.4)" stroke-width="1.5" marker-end="url(#arrow)"></path><path d="M 576 1181 C 616 1181, 616 345, 656 345" fill="none" stroke="rgba(154,124,255,0.4)" stroke-width="1.5" marker-end="url(#arrow)"></path><path d="M 336 1203 C 296 1203, 296 59, 256 59" fill="none" stroke="rgba(154,124,255,0.4)" stroke-width="1.5" marker-end="url(#arrow)"></path><path d="M 896 1181 C 896 1181, 896 345, 896 345" fill="none" stroke="rgba(154,124,255,0.4)" stroke-width="1.5" marker-end="url(#arrow)"></path><path d="M 656 1203 C 456 1203, 456 59, 256 59" fill="none" stroke="rgba(154,124,255,0.4)" stroke-width="1.5" marker-end="url(#arrow)"></path><path d="M 256 1423 C 456 1423, 456 345, 656 345" fill="none" stroke="rgba(154,124,255,0.4)" stroke-width="1.5" marker-end="url(#arrow)"></path><path d="M 256 1445 C 256 1445, 256 59, 256 59" fill="none" stroke="rgba(154,124,255,0.4)" stroke-width="1.5" marker-end="url(#arrow)"></path><path d="M 576 1423 C 616 1423, 616 345, 656 345" fill="none" stroke="rgba(154,124,255,0.4)" stroke-width="1.5" marker-end="url(#arrow)"></path><path d="M 336 1445 C 296 1445, 296 59, 256 59" fill="none" stroke="rgba(154,124,255,0.4)" stroke-width="1.5" marker-end="url(#arrow)"></path><path d="M 896 1423 C 896 1423, 896 345, 896 345" fill="none" stroke="rgba(154,124,255,0.4)" stroke-width="1.5" marker-end="url(#arrow)"></path><path d="M 656 1445 C 456 1445, 456 59, 256 59" fill="none" stroke="rgba(154,124,255,0.4)" stroke-width="1.5" marker-end="url(#arrow)"></path><path d="M 256 1797 C 456 1797, 456 345, 656 345" fill="none" stroke="rgba(154,124,255,0.4)" stroke-width="1.5" marker-end="url(#arrow)"></path><path d="M 576 1753 C 616 1753, 616 345, 656 345" fill="none" stroke="rgba(154,124,255,0.4)" stroke-width="1.5" marker-end="url(#arrow)"></path><path d="M 336 1775 C 296 1775, 296 59, 256 59" fill="none" stroke="rgba(154,124,255,0.4)" stroke-width="1.5" marker-end="url(#arrow)"></path><path d="M 656 1753 C 616 1753, 616 1731, 576 1731" fill="none" stroke="rgba(154,124,255,0.4)" stroke-width="1.5" marker-end="url(#arrow)"></path><path d="M 256 1951 C 456 1951, 456 345, 656 345" fill="none" stroke="rgba(154,124,255,0.4)" stroke-width="1.5" marker-end="url(#arrow)"></path><path d="M 256 1973 C 256 1973, 256 59, 256 59" fill="none" stroke="rgba(154,124,255,0.4)" stroke-width="1.5" marker-end="url(#arrow)"></path><rect x="16" y="16" width="240" height="180" rx="8" fill="rgba(22,22,22,1)" stroke="rgba(255,255,255,0.1)" stroke-width="1"></rect><rect x="16" y="16" width="240" height="32" rx="8" fill="rgba(154,124,255,0.12)"></rect><rect x="16" y="44" width="240" height="4" fill="rgba(154,124,255,0.12)"></rect><text x="28" y="37" fill="rgba(255,255,255,1)" font-weight="600" font-size="13">organization</text><text x="28" y="63" fill="rgba(255,255,255,0.85)">id</text><rect x="48.4" y="53" width="22" height="14" rx="3" fill="rgba(79,188,252,0.7)" opacity="0.2"></rect><text x="59.4" y="62" fill="rgba(79,188,252,0.7)" font-size="9" font-weight="600" text-anchor="middle">PK</text><text x="244" y="63" fill="rgba(255,255,255,0.4)" text-anchor="end" font-size="11">String</text><text x="28" y="85" fill="rgba(255,255,255,0.85)">name</text><text x="244" y="85" fill="rgba(255,255,255,0.4)" text-anchor="end" font-size="11">String</text><text x="28" y="107" fill="rgba(255,255,255,0.85)">slug</text><text x="244" y="107" fill="rgba(255,255,255,0.4)" text-anchor="end" font-size="11">String</text><text x="28" y="129" fill="rgba(255,255,255,0.85)">logo</text><text x="244" y="129" fill="rgba(255,255,255,0.4)" text-anchor="end" font-size="11">String?</text><text x="28" y="151" fill="rgba(255,255,255,0.85)">created_at</text><text x="244" y="151" fill="rgba(255,255,255,0.4)" text-anchor="end" font-size="11">DateTime</text><text x="28" y="173" fill="rgba(255,255,255,0.85)">updated_at</text><text x="244" y="173" fill="rgba(255,255,255,0.4)" text-anchor="end" font-size="11">DateTime</text><rect x="336" y="16" width="240" height="180" rx="8" fill="rgba(22,22,22,1)" stroke="rgba(255,255,255,0.1)" stroke-width="1"></rect><rect x="336" y="16" width="240" height="32" rx="8" fill="rgba(154,124,255,0.12)"></rect><rect x="336" y="44" width="240" height="4" fill="rgba(154,124,255,0.12)"></rect><text x="348" y="37" fill="rgba(255,255,255,1)" font-weight="600" font-size="13">member</text><text x="348" y="63" fill="rgba(255,255,255,0.85)">id</text><rect x="368.4" y="53" width="22" height="14" rx="3" fill="rgba(79,188,252,0.7)" opacity="0.2"></rect><text x="379.4" y="62" fill="rgba(79,188,252,0.7)" font-size="9" font-weight="600" text-anchor="middle">PK</text><text x="564" y="63" fill="rgba(255,255,255,0.4)" text-anchor="end" font-size="11">String</text><text x="348" y="85" fill="rgba(154,124,255,0.9)">organization_id</text><rect x="462" y="75" width="22" height="14" rx="3" fill="rgba(154,124,255,0.7)" opacity="0.2"></rect><text x="473" y="84" fill="rgba(154,124,255,0.7)" font-size="9" font-weight="600" text-anchor="middle">FK</text><text x="564" y="85" fill="rgba(255,255,255,0.4)" text-anchor="end" font-size="11">String</text><text x="348" y="107" fill="rgba(154,124,255,0.9)">user_id</text><rect x="404.4" y="97" width="22" height="14" rx="3" fill="rgba(154,124,255,0.7)" opacity="0.2"></rect><text x="415.4" y="106" fill="rgba(154,124,255,0.7)" font-size="9" font-weight="600" text-anchor="middle">FK</text><text x="564" y="107" fill="rgba(255,255,255,0.4)" text-anchor="end" font-size="11">String</text><text x="348" y="129" fill="rgba(255,255,255,0.85)">role</text><text x="564" y="129" fill="rgba(255,255,255,0.4)" text-anchor="end" font-size="11">String</text><text x="348" y="151" fill="rgba(154,124,255,0.9)">team_id</text><rect x="404.4" y="141" width="22" height="14" rx="3" fill="rgba(154,124,255,0.7)" opacity="0.2"></rect><text x="415.4" y="150" fill="rgba(154,124,255,0.7)" font-size="9" font-weight="600" text-anchor="middle">FK</text><text x="564" y="151" fill="rgba(255,255,255,0.4)" text-anchor="end" font-size="11">String?</text><text x="348" y="173" fill="rgba(255,255,255,0.85)">created_at</text><text x="564" y="173" fill="rgba(255,255,255,0.4)" text-anchor="end" font-size="11">DateTime</text><rect x="656" y="16" width="240" height="246" rx="8" fill="rgba(22,22,22,1)" stroke="rgba(255,255,255,0.1)" stroke-width="1"></rect><rect x="656" y="16" width="240" height="32" rx="8" fill="rgba(154,124,255,0.12)"></rect><rect x="656" y="44" width="240" height="4" fill="rgba(154,124,255,0.12)"></rect><text x="668" y="37" fill="rgba(255,255,255,1)" font-weight="600" font-size="13">invitation</text><text x="668" y="63" fill="rgba(255,255,255,0.85)">id</text><rect x="688.4" y="53" width="22" height="14" rx="3" fill="rgba(79,188,252,0.7)" opacity="0.2"></rect><text x="699.4" y="62" fill="rgba(79,188,252,0.7)" font-size="9" font-weight="600" text-anchor="middle">PK</text><text x="884" y="63" fill="rgba(255,255,255,0.4)" text-anchor="end" font-size="11">String</text><text x="668" y="85" fill="rgba(154,124,255,0.9)">organization_id</text><rect x="782" y="75" width="22" height="14" rx="3" fill="rgba(154,124,255,0.7)" opacity="0.2"></rect><text x="793" y="84" fill="rgba(154,124,255,0.7)" font-size="9" font-weight="600" text-anchor="middle">FK</text><text x="884" y="85" fill="rgba(255,255,255,0.4)" text-anchor="end" font-size="11">String</text><text x="668" y="107" fill="rgba(255,255,255,0.85)">email</text><text x="884" y="107" fill="rgba(255,255,255,0.4)" text-anchor="end" font-size="11">String</text><text x="668" y="129" fill="rgba(255,255,255,0.85)">role</text><text x="884" y="129" fill="rgba(255,255,255,0.4)" text-anchor="end" font-size="11">String</text><text x="668" y="151" fill="rgba(255,255,255,0.85)">status</text><text x="884" y="151" fill="rgba(255,255,255,0.4)" text-anchor="end" font-size="11">String</text><text x="668" y="173" fill="rgba(255,255,255,0.85)">expires_at</text><text x="884" y="173" fill="rgba(255,255,255,0.4)" text-anchor="end" font-size="11">DateTime</text><text x="668" y="195" fill="rgba(255,255,255,0.85)">created_at</text><text x="884" y="195" fill="rgba(255,255,255,0.4)" text-anchor="end" font-size="11">DateTime</text><text x="668" y="217" fill="rgba(255,255,255,0.85)">inviter_id</text><text x="884" y="217" fill="rgba(255,255,255,0.4)" text-anchor="end" font-size="11">String</text><text x="668" y="239" fill="rgba(154,124,255,0.9)">team_id</text><rect x="724.4" y="229" width="22" height="14" rx="3" fill="rgba(154,124,255,0.7)" opacity="0.2"></rect><text x="735.4" y="238" fill="rgba(154,124,255,0.7)" font-size="9" font-weight="600" text-anchor="middle">FK</text><text x="884" y="239" fill="rgba(255,255,255,0.4)" text-anchor="end" font-size="11">String?</text><rect x="16" y="302" width="240" height="180" rx="8" fill="rgba(22,22,22,1)" stroke="rgba(255,255,255,0.1)" stroke-width="1"></rect><rect x="16" y="302" width="240" height="32" rx="8" fill="rgba(154,124,255,0.12)"></rect><rect x="16" y="330" width="240" height="4" fill="rgba(154,124,255,0.12)"></rect><text x="28" y="323" fill="rgba(255,255,255,1)" font-weight="600" font-size="13">team</text><text x="28" y="349" fill="rgba(255,255,255,0.85)">id</text><rect x="48.4" y="339" width="22" height="14" rx="3" fill="rgba(79,188,252,0.7)" opacity="0.2"></rect><text x="59.4" y="348" fill="rgba(79,188,252,0.7)" font-size="9" font-weight="600" text-anchor="middle">PK</text><text x="244" y="349" fill="rgba(255,255,255,0.4)" text-anchor="end" font-size="11">String</text><text x="28" y="371" fill="rgba(255,255,255,0.85)">name</text><text x="244" y="371" fill="rgba(255,255,255,0.4)" text-anchor="end" font-size="11">String</text><text x="28" y="393" fill="rgba(255,255,255,0.85)">description</text><text x="244" y="393" fill="rgba(255,255,255,0.4)" text-anchor="end" font-size="11">String?</text><text x="28" y="415" fill="rgba(154,124,255,0.9)">organization_id</text><rect x="142" y="405" width="22" height="14" rx="3" fill="rgba(154,124,255,0.7)" opacity="0.2"></rect><text x="153" y="414" fill="rgba(154,124,255,0.7)" font-size="9" font-weight="600" text-anchor="middle">FK</text><text x="244" y="415" fill="rgba(255,255,255,0.4)" text-anchor="end" font-size="11">String</text><text x="28" y="437" fill="rgba(255,255,255,0.85)">created_at</text><text x="244" y="437" fill="rgba(255,255,255,0.4)" text-anchor="end" font-size="11">DateTime</text><text x="28" y="459" fill="rgba(255,255,255,0.85)">updated_at</text><text x="244" y="459" fill="rgba(255,255,255,0.4)" text-anchor="end" font-size="11">DateTime</text><rect x="336" y="302" width="240" height="136" rx="8" fill="rgba(22,22,22,1)" stroke="rgba(255,255,255,0.1)" stroke-width="1"></rect><rect x="336" y="302" width="240" height="32" rx="8" fill="rgba(154,124,255,0.12)"></rect><rect x="336" y="330" width="240" height="4" fill="rgba(154,124,255,0.12)"></rect><text x="348" y="323" fill="rgba(255,255,255,1)" font-weight="600" font-size="13">team_member</text><text x="348" y="349" fill="rgba(255,255,255,0.85)">id</text><rect x="368.4" y="339" width="22" height="14" rx="3" fill="rgba(79,188,252,0.7)" opacity="0.2"></rect><text x="379.4" y="348" fill="rgba(79,188,252,0.7)" font-size="9" font-weight="600" text-anchor="middle">PK</text><text x="564" y="349" fill="rgba(255,255,255,0.4)" text-anchor="end" font-size="11">String</text><text x="348" y="371" fill="rgba(154,124,255,0.9)">team_id</text><rect x="404.4" y="361" width="22" height="14" rx="3" fill="rgba(154,124,255,0.7)" opacity="0.2"></rect><text x="415.4" y="370" fill="rgba(154,124,255,0.7)" font-size="9" font-weight="600" text-anchor="middle">FK</text><text x="564" y="371" fill="rgba(255,255,255,0.4)" text-anchor="end" font-size="11">String</text><text x="348" y="393" fill="rgba(154,124,255,0.9)">user_id</text><rect x="404.4" y="383" width="22" height="14" rx="3" fill="rgba(154,124,255,0.7)" opacity="0.2"></rect><text x="415.4" y="392" fill="rgba(154,124,255,0.7)" font-size="9" font-weight="600" text-anchor="middle">FK</text><text x="564" y="393" fill="rgba(255,255,255,0.4)" text-anchor="end" font-size="11">String</text><text x="348" y="415" fill="rgba(255,255,255,0.85)">created_at</text><text x="564" y="415" fill="rgba(255,255,255,0.4)" text-anchor="end" font-size="11">DateTime</text><rect x="656" y="302" width="240" height="356" rx="8" fill="rgba(22,22,22,1)" stroke="rgba(255,255,255,0.1)" stroke-width="1"></rect><rect x="656" y="302" width="240" height="32" rx="8" fill="rgba(154,124,255,0.12)"></rect><rect x="656" y="330" width="240" height="4" fill="rgba(154,124,255,0.12)"></rect><text x="668" y="323" fill="rgba(255,255,255,1)" font-weight="600" font-size="13">users</text><text x="668" y="349" fill="rgba(255,255,255,0.85)">id</text><rect x="688.4" y="339" width="22" height="14" rx="3" fill="rgba(79,188,252,0.7)" opacity="0.2"></rect><text x="699.4" y="348" fill="rgba(79,188,252,0.7)" font-size="9" font-weight="600" text-anchor="middle">PK</text><text x="884" y="349" fill="rgba(255,255,255,0.4)" text-anchor="end" font-size="11">String</text><text x="668" y="371" fill="rgba(255,255,255,0.85)">name</text><text x="884" y="371" fill="rgba(255,255,255,0.4)" text-anchor="end" font-size="11">String</text><text x="668" y="393" fill="rgba(255,255,255,0.85)">email</text><text x="884" y="393" fill="rgba(255,255,255,0.4)" text-anchor="end" font-size="11">String</text><text x="668" y="415" fill="rgba(255,255,255,0.85)">email_verified</text><text x="884" y="415" fill="rgba(255,255,255,0.4)" text-anchor="end" font-size="11">Boolean</text><text x="668" y="437" fill="rgba(255,255,255,0.85)">image</text><text x="884" y="437" fill="rgba(255,255,255,0.4)" text-anchor="end" font-size="11">String?</text><text x="668" y="459" fill="rgba(255,255,255,0.85)">created_at</text><text x="884" y="459" fill="rgba(255,255,255,0.4)" text-anchor="end" font-size="11">DateTime</text><text x="668" y="481" fill="rgba(255,255,255,0.85)">updated_at</text><text x="884" y="481" fill="rgba(255,255,255,0.4)" text-anchor="end" font-size="11">DateTime</text><text x="668" y="503" fill="rgba(255,255,255,0.85)">deleted_at</text><text x="884" y="503" fill="rgba(255,255,255,0.4)" text-anchor="end" font-size="11">DateTime?</text><text x="668" y="525" fill="rgba(255,255,255,0.85)">role</text><text x="884" y="525" fill="rgba(255,255,255,0.4)" text-anchor="end" font-size="11">String?</text><text x="668" y="547" fill="rgba(255,255,255,0.85)">banned</text><text x="884" y="547" fill="rgba(255,255,255,0.4)" text-anchor="end" font-size="11">Boolean?</text><text x="668" y="569" fill="rgba(255,255,255,0.85)">ban_reason</text><text x="884" y="569" fill="rgba(255,255,255,0.4)" text-anchor="end" font-size="11">String?</text><text x="668" y="591" fill="rgba(255,255,255,0.85)">ban_expires</text><text x="884" y="591" fill="rgba(255,255,255,0.4)" text-anchor="end" font-size="11">DateTime?</text><text x="668" y="613" fill="rgba(255,255,255,0.85)">twoFactorEnabled</text><text x="884" y="613" fill="rgba(255,255,255,0.4)" text-anchor="end" font-size="11">Boolean</text><text x="668" y="635" fill="rgba(255,255,255,0.85)">custom</text><text x="884" y="635" fill="rgba(255,255,255,0.4)" text-anchor="end" font-size="11">Json?</text><rect x="16" y="698" width="240" height="334" rx="8" fill="rgba(22,22,22,1)" stroke="rgba(255,255,255,0.1)" stroke-width="1"></rect><rect x="16" y="698" width="240" height="32" rx="8" fill="rgba(154,124,255,0.12)"></rect><rect x="16" y="726" width="240" height="4" fill="rgba(154,124,255,0.12)"></rect><text x="28" y="719" fill="rgba(255,255,255,1)" font-weight="600" font-size="13">sessions</text><text x="28" y="745" fill="rgba(255,255,255,0.85)">id</text><rect x="48.4" y="735" width="22" height="14" rx="3" fill="rgba(79,188,252,0.7)" opacity="0.2"></rect><text x="59.4" y="744" fill="rgba(79,188,252,0.7)" font-size="9" font-weight="600" text-anchor="middle">PK</text><text x="244" y="745" fill="rgba(255,255,255,0.4)" text-anchor="end" font-size="11">String</text><text x="28" y="767" fill="rgba(255,255,255,0.85)">expires_at</text><text x="244" y="767" fill="rgba(255,255,255,0.4)" text-anchor="end" font-size="11">DateTime</text><text x="28" y="789" fill="rgba(255,255,255,0.85)">token</text><text x="244" y="789" fill="rgba(255,255,255,0.4)" text-anchor="end" font-size="11">String</text><text x="28" y="811" fill="rgba(255,255,255,0.85)">created_at</text><text x="244" y="811" fill="rgba(255,255,255,0.4)" text-anchor="end" font-size="11">DateTime</text><text x="28" y="833" fill="rgba(255,255,255,0.85)">updated_at</text><text x="244" y="833" fill="rgba(255,255,255,0.4)" text-anchor="end" font-size="11">DateTime</text><text x="28" y="855" fill="rgba(255,255,255,0.85)">deleted_at</text><text x="244" y="855" fill="rgba(255,255,255,0.4)" text-anchor="end" font-size="11">DateTime?</text><text x="28" y="877" fill="rgba(255,255,255,0.85)">ip_address</text><text x="244" y="877" fill="rgba(255,255,255,0.4)" text-anchor="end" font-size="11">String?</text><text x="28" y="899" fill="rgba(255,255,255,0.85)">user_agent</text><text x="244" y="899" fill="rgba(255,255,255,0.4)" text-anchor="end" font-size="11">String?</text><text x="28" y="921" fill="rgba(154,124,255,0.9)">user_id</text><rect x="84.4" y="911" width="22" height="14" rx="3" fill="rgba(154,124,255,0.7)" opacity="0.2"></rect><text x="95.4" y="920" fill="rgba(154,124,255,0.7)" font-size="9" font-weight="600" text-anchor="middle">FK</text><text x="244" y="921" fill="rgba(255,255,255,0.4)" text-anchor="end" font-size="11">String</text><text x="28" y="943" fill="rgba(255,255,255,0.85)">impersonated_by</text><text x="244" y="943" fill="rgba(255,255,255,0.4)" text-anchor="end" font-size="11">String?</text><text x="28" y="965" fill="rgba(255,255,255,0.85)">active_organization_id</text><text x="244" y="965" fill="rgba(255,255,255,0.4)" text-anchor="end" font-size="11">String?</text><text x="28" y="987" fill="rgba(255,255,255,0.85)">active_team_id</text><text x="244" y="987" fill="rgba(255,255,255,0.4)" text-anchor="end" font-size="11">String?</text><text x="28" y="1009" fill="rgba(255,255,255,0.85)">custom</text><text x="244" y="1009" fill="rgba(255,255,255,0.4)" text-anchor="end" font-size="11">Json?</text><rect x="336" y="698" width="240" height="378" rx="8" fill="rgba(22,22,22,1)" stroke="rgba(255,255,255,0.1)" stroke-width="1"></rect><rect x="336" y="698" width="240" height="32" rx="8" fill="rgba(154,124,255,0.12)"></rect><rect x="336" y="726" width="240" height="4" fill="rgba(154,124,255,0.12)"></rect><text x="348" y="719" fill="rgba(255,255,255,1)" font-weight="600" font-size="13">accounts</text><text x="348" y="745" fill="rgba(255,255,255,0.85)">id</text><rect x="368.4" y="735" width="22" height="14" rx="3" fill="rgba(79,188,252,0.7)" opacity="0.2"></rect><text x="379.4" y="744" fill="rgba(79,188,252,0.7)" font-size="9" font-weight="600" text-anchor="middle">PK</text><text x="564" y="745" fill="rgba(255,255,255,0.4)" text-anchor="end" font-size="11">String</text><text x="348" y="767" fill="rgba(255,255,255,0.85)">account_id</text><text x="564" y="767" fill="rgba(255,255,255,0.4)" text-anchor="end" font-size="11">String</text><text x="348" y="789" fill="rgba(255,255,255,0.85)">provider_id</text><text x="564" y="789" fill="rgba(255,255,255,0.4)" text-anchor="end" font-size="11">String</text><text x="348" y="811" fill="rgba(154,124,255,0.9)">user_id</text><rect x="404.4" y="801" width="22" height="14" rx="3" fill="rgba(154,124,255,0.7)" opacity="0.2"></rect><text x="415.4" y="810" fill="rgba(154,124,255,0.7)" font-size="9" font-weight="600" text-anchor="middle">FK</text><text x="564" y="811" fill="rgba(255,255,255,0.4)" text-anchor="end" font-size="11">String</text><text x="348" y="833" fill="rgba(255,255,255,0.85)">access_token</text><text x="564" y="833" fill="rgba(255,255,255,0.4)" text-anchor="end" font-size="11">String?</text><text x="348" y="855" fill="rgba(255,255,255,0.85)">refresh_token</text><text x="564" y="855" fill="rgba(255,255,255,0.4)" text-anchor="end" font-size="11">String?</text><text x="348" y="877" fill="rgba(255,255,255,0.85)">id_token</text><text x="564" y="877" fill="rgba(255,255,255,0.4)" text-anchor="end" font-size="11">String?</text><text x="348" y="899" fill="rgba(255,255,255,0.85)">access_token_expires_at</text><text x="564" y="899" fill="rgba(255,255,255,0.4)" text-anchor="end" font-size="11">DateTime?</text><text x="348" y="921" fill="rgba(255,255,255,0.85)">refresh_token_expires_at</text><text x="564" y="921" fill="rgba(255,255,255,0.4)" text-anchor="end" font-size="11">DateTime?</text><text x="348" y="943" fill="rgba(255,255,255,0.85)">scope</text><text x="564" y="943" fill="rgba(255,255,255,0.4)" text-anchor="end" font-size="11">String?</text><text x="348" y="965" fill="rgba(255,255,255,0.85)">password</text><text x="564" y="965" fill="rgba(255,255,255,0.4)" text-anchor="end" font-size="11">String?</text><text x="348" y="987" fill="rgba(255,255,255,0.85)">created_at</text><text x="564" y="987" fill="rgba(255,255,255,0.4)" text-anchor="end" font-size="11">DateTime</text><text x="348" y="1009" fill="rgba(255,255,255,0.85)">updated_at</text><text x="564" y="1009" fill="rgba(255,255,255,0.4)" text-anchor="end" font-size="11">DateTime</text><text x="348" y="1031" fill="rgba(255,255,255,0.85)">deleted_at</text><text x="564" y="1031" fill="rgba(255,255,255,0.4)" text-anchor="end" font-size="11">DateTime?</text><text x="348" y="1053" fill="rgba(255,255,255,0.85)">custom</text><text x="564" y="1053" fill="rgba(255,255,255,0.4)" text-anchor="end" font-size="11">Json?</text><rect x="656" y="698" width="240" height="224" rx="8" fill="rgba(22,22,22,1)" stroke="rgba(255,255,255,0.1)" stroke-width="1"></rect><rect x="656" y="698" width="240" height="32" rx="8" fill="rgba(154,124,255,0.12)"></rect><rect x="656" y="726" width="240" height="4" fill="rgba(154,124,255,0.12)"></rect><text x="668" y="719" fill="rgba(255,255,255,1)" font-weight="600" font-size="13">verifications</text><text x="668" y="745" fill="rgba(255,255,255,0.85)">id</text><rect x="688.4" y="735" width="22" height="14" rx="3" fill="rgba(79,188,252,0.7)" opacity="0.2"></rect><text x="699.4" y="744" fill="rgba(79,188,252,0.7)" font-size="9" font-weight="600" text-anchor="middle">PK</text><text x="884" y="745" fill="rgba(255,255,255,0.4)" text-anchor="end" font-size="11">String</text><text x="668" y="767" fill="rgba(255,255,255,0.85)">identifier</text><text x="884" y="767" fill="rgba(255,255,255,0.4)" text-anchor="end" font-size="11">String</text><text x="668" y="789" fill="rgba(255,255,255,0.85)">value</text><text x="884" y="789" fill="rgba(255,255,255,0.4)" text-anchor="end" font-size="11">String</text><text x="668" y="811" fill="rgba(255,255,255,0.85)">expires_at</text><text x="884" y="811" fill="rgba(255,255,255,0.4)" text-anchor="end" font-size="11">DateTime</text><text x="668" y="833" fill="rgba(255,255,255,0.85)">created_at</text><text x="884" y="833" fill="rgba(255,255,255,0.4)" text-anchor="end" font-size="11">DateTime</text><text x="668" y="855" fill="rgba(255,255,255,0.85)">updated_at</text><text x="884" y="855" fill="rgba(255,255,255,0.4)" text-anchor="end" font-size="11">DateTime</text><text x="668" y="877" fill="rgba(255,255,255,0.85)">deleted_at</text><text x="884" y="877" fill="rgba(255,255,255,0.4)" text-anchor="end" font-size="11">DateTime?</text><text x="668" y="899" fill="rgba(255,255,255,0.85)">custom</text><text x="884" y="899" fill="rgba(255,255,255,0.4)" text-anchor="end" font-size="11">Json?</text><rect x="16" y="1116" width="240" height="202" rx="8" fill="rgba(22,22,22,1)" stroke="rgba(255,255,255,0.1)" stroke-width="1"></rect><rect x="16" y="1116" width="240" height="32" rx="8" fill="rgba(154,124,255,0.12)"></rect><rect x="16" y="1144" width="240" height="4" fill="rgba(154,124,255,0.12)"></rect><text x="28" y="1137" fill="rgba(255,255,255,1)" font-weight="600" font-size="13">campaigns</text><text x="28" y="1163" fill="rgba(255,255,255,0.85)">id</text><rect x="48.4" y="1153" width="22" height="14" rx="3" fill="rgba(79,188,252,0.7)" opacity="0.2"></rect><text x="59.4" y="1162" fill="rgba(79,188,252,0.7)" font-size="9" font-weight="600" text-anchor="middle">PK</text><text x="244" y="1163" fill="rgba(255,255,255,0.4)" text-anchor="end" font-size="11">String</text><text x="28" y="1185" fill="rgba(154,124,255,0.9)">user_id</text><rect x="84.4" y="1175" width="22" height="14" rx="3" fill="rgba(154,124,255,0.7)" opacity="0.2"></rect><text x="95.4" y="1184" fill="rgba(154,124,255,0.7)" font-size="9" font-weight="600" text-anchor="middle">FK</text><text x="244" y="1185" fill="rgba(255,255,255,0.4)" text-anchor="end" font-size="11">String</text><text x="28" y="1207" fill="rgba(154,124,255,0.9)">organization_id</text><rect x="142" y="1197" width="22" height="14" rx="3" fill="rgba(154,124,255,0.7)" opacity="0.2"></rect><text x="153" y="1206" fill="rgba(154,124,255,0.7)" font-size="9" font-weight="600" text-anchor="middle">FK</text><text x="244" y="1207" fill="rgba(255,255,255,0.4)" text-anchor="end" font-size="11">String?</text><text x="28" y="1229" fill="rgba(255,255,255,0.85)">name</text><text x="244" y="1229" fill="rgba(255,255,255,0.4)" text-anchor="end" font-size="11">String</text><text x="28" y="1251" fill="rgba(255,255,255,0.85)">status</text><text x="244" y="1251" fill="rgba(255,255,255,0.4)" text-anchor="end" font-size="11">String</text><text x="28" y="1273" fill="rgba(255,255,255,0.85)">step</text><text x="244" y="1273" fill="rgba(255,255,255,0.4)" text-anchor="end" font-size="11">Int</text><text x="28" y="1295" fill="rgba(255,255,255,0.85)">custom</text><text x="244" y="1295" fill="rgba(255,255,255,0.4)" text-anchor="end" font-size="11">Json</text><rect x="336" y="1116" width="240" height="202" rx="8" fill="rgba(22,22,22,1)" stroke="rgba(255,255,255,0.1)" stroke-width="1"></rect><rect x="336" y="1116" width="240" height="32" rx="8" fill="rgba(154,124,255,0.12)"></rect><rect x="336" y="1144" width="240" height="4" fill="rgba(154,124,255,0.12)"></rect><text x="348" y="1137" fill="rgba(255,255,255,1)" font-weight="600" font-size="13">reports</text><text x="348" y="1163" fill="rgba(255,255,255,0.85)">id</text><rect x="368.4" y="1153" width="22" height="14" rx="3" fill="rgba(79,188,252,0.7)" opacity="0.2"></rect><text x="379.4" y="1162" fill="rgba(79,188,252,0.7)" font-size="9" font-weight="600" text-anchor="middle">PK</text><text x="564" y="1163" fill="rgba(255,255,255,0.4)" text-anchor="end" font-size="11">String</text><text x="348" y="1185" fill="rgba(154,124,255,0.9)">user_id</text><rect x="404.4" y="1175" width="22" height="14" rx="3" fill="rgba(154,124,255,0.7)" opacity="0.2"></rect><text x="415.4" y="1184" fill="rgba(154,124,255,0.7)" font-size="9" font-weight="600" text-anchor="middle">FK</text><text x="564" y="1185" fill="rgba(255,255,255,0.4)" text-anchor="end" font-size="11">String</text><text x="348" y="1207" fill="rgba(154,124,255,0.9)">organization_id</text><rect x="462" y="1197" width="22" height="14" rx="3" fill="rgba(154,124,255,0.7)" opacity="0.2"></rect><text x="473" y="1206" fill="rgba(154,124,255,0.7)" font-size="9" font-weight="600" text-anchor="middle">FK</text><text x="564" y="1207" fill="rgba(255,255,255,0.4)" text-anchor="end" font-size="11">String?</text><text x="348" y="1229" fill="rgba(255,255,255,0.85)">name</text><text x="564" y="1229" fill="rgba(255,255,255,0.4)" text-anchor="end" font-size="11">String</text><text x="348" y="1251" fill="rgba(255,255,255,0.85)">description</text><text x="564" y="1251" fill="rgba(255,255,255,0.4)" text-anchor="end" font-size="11">String</text><text x="348" y="1273" fill="rgba(255,255,255,0.85)">platforms</text><text x="564" y="1273" fill="rgba(255,255,255,0.4)" text-anchor="end" font-size="11">Json</text><text x="348" y="1295" fill="rgba(255,255,255,0.85)">custom</text><text x="564" y="1295" fill="rgba(255,255,255,0.4)" text-anchor="end" font-size="11">Json</text><rect x="656" y="1116" width="240" height="158" rx="8" fill="rgba(22,22,22,1)" stroke="rgba(255,255,255,0.1)" stroke-width="1"></rect><rect x="656" y="1116" width="240" height="32" rx="8" fill="rgba(154,124,255,0.12)"></rect><rect x="656" y="1144" width="240" height="4" fill="rgba(154,124,255,0.12)"></rect><text x="668" y="1137" fill="rgba(255,255,255,1)" font-weight="600" font-size="13">integrations</text><text x="668" y="1163" fill="rgba(255,255,255,0.85)">id</text><rect x="688.4" y="1153" width="22" height="14" rx="3" fill="rgba(79,188,252,0.7)" opacity="0.2"></rect><text x="699.4" y="1162" fill="rgba(79,188,252,0.7)" font-size="9" font-weight="600" text-anchor="middle">PK</text><text x="884" y="1163" fill="rgba(255,255,255,0.4)" text-anchor="end" font-size="11">String</text><text x="668" y="1185" fill="rgba(154,124,255,0.9)">user_id</text><rect x="724.4" y="1175" width="22" height="14" rx="3" fill="rgba(154,124,255,0.7)" opacity="0.2"></rect><text x="735.4" y="1184" fill="rgba(154,124,255,0.7)" font-size="9" font-weight="600" text-anchor="middle">FK</text><text x="884" y="1185" fill="rgba(255,255,255,0.4)" text-anchor="end" font-size="11">String</text><text x="668" y="1207" fill="rgba(154,124,255,0.9)">organization_id</text><rect x="782" y="1197" width="22" height="14" rx="3" fill="rgba(154,124,255,0.7)" opacity="0.2"></rect><text x="793" y="1206" fill="rgba(154,124,255,0.7)" font-size="9" font-weight="600" text-anchor="middle">FK</text><text x="884" y="1207" fill="rgba(255,255,255,0.4)" text-anchor="end" font-size="11">String?</text><text x="668" y="1229" fill="rgba(255,255,255,0.85)">provider</text><text x="884" y="1229" fill="rgba(255,255,255,0.4)" text-anchor="end" font-size="11">String</text><text x="668" y="1251" fill="rgba(255,255,255,0.85)">credentials</text><text x="884" y="1251" fill="rgba(255,255,255,0.4)" text-anchor="end" font-size="11">Json</text><rect x="16" y="1358" width="240" height="290" rx="8" fill="rgba(22,22,22,1)" stroke="rgba(255,255,255,0.1)" stroke-width="1"></rect><rect x="16" y="1358" width="240" height="32" rx="8" fill="rgba(154,124,255,0.12)"></rect><rect x="16" y="1386" width="240" height="4" fill="rgba(154,124,255,0.12)"></rect><text x="28" y="1379" fill="rgba(255,255,255,1)" font-weight="600" font-size="13">subscriptions</text><text x="28" y="1405" fill="rgba(255,255,255,0.85)">id</text><rect x="48.4" y="1395" width="22" height="14" rx="3" fill="rgba(79,188,252,0.7)" opacity="0.2"></rect><text x="59.4" y="1404" fill="rgba(79,188,252,0.7)" font-size="9" font-weight="600" text-anchor="middle">PK</text><text x="244" y="1405" fill="rgba(255,255,255,0.4)" text-anchor="end" font-size="11">String</text><text x="28" y="1427" fill="rgba(154,124,255,0.9)">user_id</text><rect x="84.4" y="1417" width="22" height="14" rx="3" fill="rgba(154,124,255,0.7)" opacity="0.2"></rect><text x="95.4" y="1426" fill="rgba(154,124,255,0.7)" font-size="9" font-weight="600" text-anchor="middle">FK</text><text x="244" y="1427" fill="rgba(255,255,255,0.4)" text-anchor="end" font-size="11">String</text><text x="28" y="1449" fill="rgba(154,124,255,0.9)">organization_id</text><rect x="142" y="1439" width="22" height="14" rx="3" fill="rgba(154,124,255,0.7)" opacity="0.2"></rect><text x="153" y="1448" fill="rgba(154,124,255,0.7)" font-size="9" font-weight="600" text-anchor="middle">FK</text><text x="244" y="1449" fill="rgba(255,255,255,0.4)" text-anchor="end" font-size="11">String?</text><text x="28" y="1471" fill="rgba(255,255,255,0.85)">plan_id</text><text x="244" y="1471" fill="rgba(255,255,255,0.4)" text-anchor="end" font-size="11">String</text><text x="28" y="1493" fill="rgba(255,255,255,0.85)">status</text><text x="244" y="1493" fill="rgba(255,255,255,0.4)" text-anchor="end" font-size="11">String</text><text x="28" y="1515" fill="rgba(255,255,255,0.85)">credits_allocated</text><text x="244" y="1515" fill="rgba(255,255,255,0.4)" text-anchor="end" font-size="11">Int</text><text x="28" y="1537" fill="rgba(255,255,255,0.85)">credits_used</text><text x="244" y="1537" fill="rgba(255,255,255,0.4)" text-anchor="end" font-size="11">Int</text><text x="28" y="1559" fill="rgba(255,255,255,0.85)">current_period_start</text><text x="244" y="1559" fill="rgba(255,255,255,0.4)" text-anchor="end" font-size="11">DateTime</text><text x="28" y="1581" fill="rgba(255,255,255,0.85)">current_period_end</text><text x="244" y="1581" fill="rgba(255,255,255,0.4)" text-anchor="end" font-size="11">DateTime</text><text x="28" y="1603" fill="rgba(255,255,255,0.85)">created_at</text><text x="244" y="1603" fill="rgba(255,255,255,0.4)" text-anchor="end" font-size="11">DateTime</text><text x="28" y="1625" fill="rgba(255,255,255,0.85)">updated_at</text><text x="244" y="1625" fill="rgba(255,255,255,0.4)" text-anchor="end" font-size="11">DateTime</text><rect x="336" y="1358" width="240" height="268" rx="8" fill="rgba(22,22,22,1)" stroke="rgba(255,255,255,0.1)" stroke-width="1"></rect><rect x="336" y="1358" width="240" height="32" rx="8" fill="rgba(154,124,255,0.12)"></rect><rect x="336" y="1386" width="240" height="4" fill="rgba(154,124,255,0.12)"></rect><text x="348" y="1379" fill="rgba(255,255,255,1)" font-weight="600" font-size="13">transactions</text><text x="348" y="1405" fill="rgba(255,255,255,0.85)">id</text><rect x="368.4" y="1395" width="22" height="14" rx="3" fill="rgba(79,188,252,0.7)" opacity="0.2"></rect><text x="379.4" y="1404" fill="rgba(79,188,252,0.7)" font-size="9" font-weight="600" text-anchor="middle">PK</text><text x="564" y="1405" fill="rgba(255,255,255,0.4)" text-anchor="end" font-size="11">String</text><text x="348" y="1427" fill="rgba(154,124,255,0.9)">user_id</text><rect x="404.4" y="1417" width="22" height="14" rx="3" fill="rgba(154,124,255,0.7)" opacity="0.2"></rect><text x="415.4" y="1426" fill="rgba(154,124,255,0.7)" font-size="9" font-weight="600" text-anchor="middle">FK</text><text x="564" y="1427" fill="rgba(255,255,255,0.4)" text-anchor="end" font-size="11">String</text><text x="348" y="1449" fill="rgba(154,124,255,0.9)">organization_id</text><rect x="462" y="1439" width="22" height="14" rx="3" fill="rgba(154,124,255,0.7)" opacity="0.2"></rect><text x="473" y="1448" fill="rgba(154,124,255,0.7)" font-size="9" font-weight="600" text-anchor="middle">FK</text><text x="564" y="1449" fill="rgba(255,255,255,0.4)" text-anchor="end" font-size="11">String?</text><text x="348" y="1471" fill="rgba(255,255,255,0.85)">type</text><text x="564" y="1471" fill="rgba(255,255,255,0.4)" text-anchor="end" font-size="11">String</text><text x="348" y="1493" fill="rgba(255,255,255,0.85)">amount</text><text x="564" y="1493" fill="rgba(255,255,255,0.4)" text-anchor="end" font-size="11">Decimal</text><text x="348" y="1515" fill="rgba(255,255,255,0.85)">currency</text><text x="564" y="1515" fill="rgba(255,255,255,0.4)" text-anchor="end" font-size="11">String</text><text x="348" y="1537" fill="rgba(255,255,255,0.85)">status</text><text x="564" y="1537" fill="rgba(255,255,255,0.4)" text-anchor="end" font-size="11">String</text><text x="348" y="1559" fill="rgba(255,255,255,0.85)">reference</text><text x="564" y="1559" fill="rgba(255,255,255,0.4)" text-anchor="end" font-size="11">String?</text><text x="348" y="1581" fill="rgba(255,255,255,0.85)">description</text><text x="564" y="1581" fill="rgba(255,255,255,0.4)" text-anchor="end" font-size="11">String</text><text x="348" y="1603" fill="rgba(255,255,255,0.85)">custom</text><text x="564" y="1603" fill="rgba(255,255,255,0.4)" text-anchor="end" font-size="11">Json?</text><rect x="656" y="1358" width="240" height="202" rx="8" fill="rgba(22,22,22,1)" stroke="rgba(255,255,255,0.1)" stroke-width="1"></rect><rect x="656" y="1358" width="240" height="32" rx="8" fill="rgba(154,124,255,0.12)"></rect><rect x="656" y="1386" width="240" height="4" fill="rgba(154,124,255,0.12)"></rect><text x="668" y="1379" fill="rgba(255,255,255,1)" font-weight="600" font-size="13">notifications</text><text x="668" y="1405" fill="rgba(255,255,255,0.85)">id</text><rect x="688.4" y="1395" width="22" height="14" rx="3" fill="rgba(79,188,252,0.7)" opacity="0.2"></rect><text x="699.4" y="1404" fill="rgba(79,188,252,0.7)" font-size="9" font-weight="600" text-anchor="middle">PK</text><text x="884" y="1405" fill="rgba(255,255,255,0.4)" text-anchor="end" font-size="11">String</text><text x="668" y="1427" fill="rgba(154,124,255,0.9)">user_id</text><rect x="724.4" y="1417" width="22" height="14" rx="3" fill="rgba(154,124,255,0.7)" opacity="0.2"></rect><text x="735.4" y="1426" fill="rgba(154,124,255,0.7)" font-size="9" font-weight="600" text-anchor="middle">FK</text><text x="884" y="1427" fill="rgba(255,255,255,0.4)" text-anchor="end" font-size="11">String</text><text x="668" y="1449" fill="rgba(154,124,255,0.9)">organization_id</text><rect x="782" y="1439" width="22" height="14" rx="3" fill="rgba(154,124,255,0.7)" opacity="0.2"></rect><text x="793" y="1448" fill="rgba(154,124,255,0.7)" font-size="9" font-weight="600" text-anchor="middle">FK</text><text x="884" y="1449" fill="rgba(255,255,255,0.4)" text-anchor="end" font-size="11">String?</text><text x="668" y="1471" fill="rgba(255,255,255,0.85)">type</text><text x="884" y="1471" fill="rgba(255,255,255,0.4)" text-anchor="end" font-size="11">String</text><text x="668" y="1493" fill="rgba(255,255,255,0.85)">title</text><text x="884" y="1493" fill="rgba(255,255,255,0.4)" text-anchor="end" font-size="11">String</text><text x="668" y="1515" fill="rgba(255,255,255,0.85)">body</text><text x="884" y="1515" fill="rgba(255,255,255,0.4)" text-anchor="end" font-size="11">String</text><text x="668" y="1537" fill="rgba(255,255,255,0.85)">data</text><text x="884" y="1537" fill="rgba(255,255,255,0.4)" text-anchor="end" font-size="11">Json?</text><rect x="16" y="1688" width="240" height="158" rx="8" fill="rgba(22,22,22,1)" stroke="rgba(255,255,255,0.1)" stroke-width="1"></rect><rect x="16" y="1688" width="240" height="32" rx="8" fill="rgba(154,124,255,0.12)"></rect><rect x="16" y="1716" width="240" height="4" fill="rgba(154,124,255,0.12)"></rect><text x="28" y="1709" fill="rgba(255,255,255,1)" font-weight="600" font-size="13">twoFactor</text><text x="28" y="1735" fill="rgba(255,255,255,0.85)">id</text><rect x="48.4" y="1725" width="22" height="14" rx="3" fill="rgba(79,188,252,0.7)" opacity="0.2"></rect><text x="59.4" y="1734" fill="rgba(79,188,252,0.7)" font-size="9" font-weight="600" text-anchor="middle">PK</text><text x="244" y="1735" fill="rgba(255,255,255,0.4)" text-anchor="end" font-size="11">String</text><text x="28" y="1757" fill="rgba(255,255,255,0.85)">secret</text><text x="244" y="1757" fill="rgba(255,255,255,0.4)" text-anchor="end" font-size="11">String</text><text x="28" y="1779" fill="rgba(255,255,255,0.85)">backupCodes</text><text x="244" y="1779" fill="rgba(255,255,255,0.4)" text-anchor="end" font-size="11">String</text><text x="28" y="1801" fill="rgba(154,124,255,0.9)">userId</text><rect x="77.2" y="1791" width="22" height="14" rx="3" fill="rgba(154,124,255,0.7)" opacity="0.2"></rect><text x="88.2" y="1800" fill="rgba(154,124,255,0.7)" font-size="9" font-weight="600" text-anchor="middle">FK</text><text x="244" y="1801" fill="rgba(255,255,255,0.4)" text-anchor="end" font-size="11">String</text><text x="28" y="1823" fill="rgba(255,255,255,0.85)">verified</text><text x="244" y="1823" fill="rgba(255,255,255,0.4)" text-anchor="end" font-size="11">Boolean</text><rect x="336" y="1688" width="240" height="158" rx="8" fill="rgba(22,22,22,1)" stroke="rgba(255,255,255,0.1)" stroke-width="1"></rect><rect x="336" y="1688" width="240" height="32" rx="8" fill="rgba(154,124,255,0.12)"></rect><rect x="336" y="1716" width="240" height="4" fill="rgba(154,124,255,0.12)"></rect><text x="348" y="1709" fill="rgba(255,255,255,1)" font-weight="600" font-size="13">conversations</text><text x="348" y="1735" fill="rgba(255,255,255,0.85)">id</text><rect x="368.4" y="1725" width="22" height="14" rx="3" fill="rgba(79,188,252,0.7)" opacity="0.2"></rect><text x="379.4" y="1734" fill="rgba(79,188,252,0.7)" font-size="9" font-weight="600" text-anchor="middle">PK</text><text x="564" y="1735" fill="rgba(255,255,255,0.4)" text-anchor="end" font-size="11">String</text><text x="348" y="1757" fill="rgba(154,124,255,0.9)">user_id</text><rect x="404.4" y="1747" width="22" height="14" rx="3" fill="rgba(154,124,255,0.7)" opacity="0.2"></rect><text x="415.4" y="1756" fill="rgba(154,124,255,0.7)" font-size="9" font-weight="600" text-anchor="middle">FK</text><text x="564" y="1757" fill="rgba(255,255,255,0.4)" text-anchor="end" font-size="11">String</text><text x="348" y="1779" fill="rgba(154,124,255,0.9)">organization_id</text><rect x="462" y="1769" width="22" height="14" rx="3" fill="rgba(154,124,255,0.7)" opacity="0.2"></rect><text x="473" y="1778" fill="rgba(154,124,255,0.7)" font-size="9" font-weight="600" text-anchor="middle">FK</text><text x="564" y="1779" fill="rgba(255,255,255,0.4)" text-anchor="end" font-size="11">String?</text><text x="348" y="1801" fill="rgba(255,255,255,0.85)">title</text><text x="564" y="1801" fill="rgba(255,255,255,0.4)" text-anchor="end" font-size="11">String</text><text x="348" y="1823" fill="rgba(255,255,255,0.85)">custom</text><text x="564" y="1823" fill="rgba(255,255,255,0.4)" text-anchor="end" font-size="11">Json?</text><rect x="656" y="1688" width="240" height="158" rx="8" fill="rgba(22,22,22,1)" stroke="rgba(255,255,255,0.1)" stroke-width="1"></rect><rect x="656" y="1688" width="240" height="32" rx="8" fill="rgba(154,124,255,0.12)"></rect><rect x="656" y="1716" width="240" height="4" fill="rgba(154,124,255,0.12)"></rect><text x="668" y="1709" fill="rgba(255,255,255,1)" font-weight="600" font-size="13">messages</text><text x="668" y="1735" fill="rgba(255,255,255,0.85)">id</text><rect x="688.4" y="1725" width="22" height="14" rx="3" fill="rgba(79,188,252,0.7)" opacity="0.2"></rect><text x="699.4" y="1734" fill="rgba(79,188,252,0.7)" font-size="9" font-weight="600" text-anchor="middle">PK</text><text x="884" y="1735" fill="rgba(255,255,255,0.4)" text-anchor="end" font-size="11">String</text><text x="668" y="1757" fill="rgba(154,124,255,0.9)">conversation_id</text><rect x="782" y="1747" width="22" height="14" rx="3" fill="rgba(154,124,255,0.7)" opacity="0.2"></rect><text x="793" y="1756" fill="rgba(154,124,255,0.7)" font-size="9" font-weight="600" text-anchor="middle">FK</text><text x="884" y="1757" fill="rgba(255,255,255,0.4)" text-anchor="end" font-size="11">String</text><text x="668" y="1779" fill="rgba(255,255,255,0.85)">role</text><text x="884" y="1779" fill="rgba(255,255,255,0.4)" text-anchor="end" font-size="11">String</text><text x="668" y="1801" fill="rgba(255,255,255,0.85)">content</text><text x="884" y="1801" fill="rgba(255,255,255,0.4)" text-anchor="end" font-size="11">String</text><text x="668" y="1823" fill="rgba(255,255,255,0.85)">metadata</text><text x="884" y="1823" fill="rgba(255,255,255,0.4)" text-anchor="end" font-size="11">Json?</text><rect x="16" y="1886" width="240" height="246" rx="8" fill="rgba(22,22,22,1)" stroke="rgba(255,255,255,0.1)" stroke-width="1"></rect><rect x="16" y="1886" width="240" height="32" rx="8" fill="rgba(154,124,255,0.12)"></rect><rect x="16" y="1914" width="240" height="4" fill="rgba(154,124,255,0.12)"></rect><text x="28" y="1907" fill="rgba(255,255,255,1)" font-weight="600" font-size="13">files</text><text x="28" y="1933" fill="rgba(255,255,255,0.85)">id</text><rect x="48.4" y="1923" width="22" height="14" rx="3" fill="rgba(79,188,252,0.7)" opacity="0.2"></rect><text x="59.4" y="1932" fill="rgba(79,188,252,0.7)" font-size="9" font-weight="600" text-anchor="middle">PK</text><text x="244" y="1933" fill="rgba(255,255,255,0.4)" text-anchor="end" font-size="11">String</text><text x="28" y="1955" fill="rgba(154,124,255,0.9)">user_id</text><rect x="84.4" y="1945" width="22" height="14" rx="3" fill="rgba(154,124,255,0.7)" opacity="0.2"></rect><text x="95.4" y="1954" fill="rgba(154,124,255,0.7)" font-size="9" font-weight="600" text-anchor="middle">FK</text><text x="244" y="1955" fill="rgba(255,255,255,0.4)" text-anchor="end" font-size="11">String</text><text x="28" y="1977" fill="rgba(154,124,255,0.9)">organization_id</text><rect x="142" y="1967" width="22" height="14" rx="3" fill="rgba(154,124,255,0.7)" opacity="0.2"></rect><text x="153" y="1976" fill="rgba(154,124,255,0.7)" font-size="9" font-weight="600" text-anchor="middle">FK</text><text x="244" y="1977" fill="rgba(255,255,255,0.4)" text-anchor="end" font-size="11">String?</text><text x="28" y="1999" fill="rgba(255,255,255,0.85)">campaign_id</text><text x="244" y="1999" fill="rgba(255,255,255,0.4)" text-anchor="end" font-size="11">String?</text><text x="28" y="2021" fill="rgba(255,255,255,0.85)">key</text><text x="244" y="2021" fill="rgba(255,255,255,0.4)" text-anchor="end" font-size="11">String</text><text x="28" y="2043" fill="rgba(255,255,255,0.85)">original_name</text><text x="244" y="2043" fill="rgba(255,255,255,0.4)" text-anchor="end" font-size="11">String</text><text x="28" y="2065" fill="rgba(255,255,255,0.85)">mime_type</text><text x="244" y="2065" fill="rgba(255,255,255,0.4)" text-anchor="end" font-size="11">String</text><text x="28" y="2087" fill="rgba(255,255,255,0.85)">size</text><text x="244" y="2087" fill="rgba(255,255,255,0.4)" text-anchor="end" font-size="11">Int</text><text x="28" y="2109" fill="rgba(255,255,255,0.85)">created_at</text><text x="244" y="2109" fill="rgba(255,255,255,0.4)" text-anchor="end" font-size="11">DateTime</text></svg>